0
SECTION
  2
HEADER
  9
$LUNITS
  70
2
  9
$AUNITS
  70
3
  0
ENDSEC
  0
SECTION
  2
TABLES
  0
ENDSEC
  0
SECTION
  2
BLOCKS
  0
ENDSEC
0
SECTION
2
ENTITIES
0
LINE
8
_MotorCAD0_
10
89.2300375236429
20
11.7473572998046
30
0
11
61.0933280802849
21
8.04308922769569
31
0
0
ARC
8
_MotorCAD1_
10
0
20
0
30
0
40
61.6205
50
4.41922300331702
51
7.5
0
LINE
8
_MotorCAD2_
10
62.4351584972982
20
4.81348077152461
30
0
11
61.4372995740596
21
4.74807764229446
31
0
0
LINE
8
_MotorCAD3_
10
62.4634000768919
20
6.10777404044484
30
0
11
62.4351584972982
21
4.81348077152461
31
0
0
LINE
8
_MotorCAD4_
10
75.9364626424349
20
6.99084521571694
30
0
11
62.4634000768919
21
6.10777404044493
31
0
0
LINE
8
_MotorCAD5_
10
76.0678833632943
20
4.98575248465596
30
0
11
75.9364626424349
21
6.99084521571694
31
0
0
LINE
8
_MotorCAD6_
10
76.1993040841537
20
2.98065975359486
30
0
11
76.0678833632943
21
4.98575248465596
31
0
0
LINE
8
_MotorCAD7_
10
76.1993040841537
20
2.98065975359486
30
0
11
62.7262415186107
21
2.09758857832289
31
0
0
LINE
8
_MotorCAD8_
10
62.7262415186107
20
2.09758857832289
30
0
11
62.5293023776372
21
3.37712272305805
31
0
0
LINE
8
_MotorCAD9_
10
62.5293023776372
20
3.37712272305805
30
0
11
61.5314434543986
21
3.31171959382788
31
0
0
ARC
8
_MotorCAD10_
10
0
20
0
30
0
40
61.6205
50
0
51
3.08077699668298
0
LINE
8
_MotorCAD11_
10
90
20
0
30
0
11
61.6205
21
0
31
0
0
ARC
8
_MotorCAD12_
10
0
20
0
30
0
40
90
50
0
51
7.5
0
LINE
8
_MotorCAD13_
10
66.0945071599964
20
2.3183563721409
30
0
11
62.7262415186107
21
2.09758857832289
31
0
0
LINE
8
_MotorCAD14_
10
66.0945071599964
20
2.3183563721409
30
0
11
65.8316657182776
21
6.32854183426298
31
0
0
LINE
8
_MotorCAD15_
10
65.8316657182776
20
6.32854183426298
30
0
11
62.4634000768919
21
6.10777404044493
31
0
0
LINE
8
_MotorCAD16_
10
62.5293023776372
20
3.37712272305811
30
0
11
62.4351584972982
21
4.8134807715245
31
0
0
LINE
8
_MotorCAD17_
10
75.9364626424349
20
6.99084521571694
30
0
11
72.5681970010492
21
6.7700774218988
31
0
0
LINE
8
_MotorCAD18_
10
72.831038442768
20
2.75989195977695
30
0
11
72.5681970010492
21
6.7700774218988
31
0
0
LINE
8
_MotorCAD19_
10
76.1993040841537
20
2.98065975359464
30
0
11
72.831038442768
21
2.75989195977695
31
0
0
LINE
8
_MotorCAD20_
10
72.5681970010492
20
6.7700774218988
30
0
11
69.1999313596634
21
6.54930962808089
31
0
0
LINE
8
_MotorCAD21_
10
69.4627728013822
20
2.53912416595881
30
0
11
69.1999313596634
21
6.54930962808089
31
0
0
LINE
8
_MotorCAD22_
10
72.831038442768
20
2.75989195977695
30
0
11
69.4627728013822
21
2.53912416595881
31
0
0
LINE
8
_MotorCAD23_
10
69.1999313596634
20
6.54930962808089
30
0
11
65.8316657182776
21
6.32854183426298
31
0
0
LINE
8
_MotorCAD24_
10
69.4627728013822
20
2.53912416595881
30
0
11
66.0945071599964
21
2.3183563721409
31
0
0
ARC
8
_MotorCAD25_
10
0
20
0
30
0
40
61.6205
50
3.08077699668298
51
4.41922300331702
0
LINE
8
_MotorCAD26_
10
60.9205
20
0
30
0
11
27.5001
21
0
31
0
0
ARC
8
_MotorCAD27_
10
0
20
0
30
0
40
60.9205
50
0
51
45
0
LINE
8
_MotorCAD28_
10
43.0772986632751
20
43.0772986632751
30
0
11
19.4455071933082
21
19.4455071933082
31
0
0
ARC
8
_MotorCAD29_
10
0
20
0
30
0
40
27.5001
50
0
51
45
0
LINE
8
_MotorCAD30_
10
42.4689585532163
20
36.6495973193444
30
0
11
41.094968637418
21
21.5519898363263
31
0
0
ARC
8
_MotorCAD31_
10
41.3937339570028
20
21.524800062267
30
0
40
0.299999999999999
50
174.8
51
264.800000000002
0
LINE
8
_MotorCAD32_
10
45.5572257323195
20
20.8446528452099
30
0
11
41.3665441829435
21
21.2260347426822
31
0
0
ARC
8
_MotorCAD33_
10
45.5844155063788
20
21.1434181647947
30
0
40
0.299999999999999
50
264.799999999999
51
354.799999999999
0
LINE
8
_MotorCAD34_
10
47.2571707417619
20
36.2138358737535
30
0
11
45.8831808259636
21
21.1162283907354
31
0
0
ARC
8
_MotorCAD35_
10
46.9584054221771
20
36.2410256478128
30
0
40
0.299999999999998
50
354.799999999999
51
84.7999999999993
0
LINE
8
_MotorCAD36_
10
46.9855951962365
20
36.5397909673976
30
0
11
42.7949136468605
21
36.9211728648698
31
0
0
ARC
8
_MotorCAD37_
10
42.7677238728011
20
36.6224075452851
30
0
40
0.300000000000001
50
84.7999999999994
51
174.799999999999
0
LINE
8
_MotorCAD38_
10
46.9532186256967
20
17.474427869042
30
0
11
44.2596370102641
21
14.2414908017604
31
0
0
ARC
8
_MotorCAD39_
10
44.4901220673421
20
14.0494578919149
30
0
40
0.299999999999996
50
140.199999999999
51
230.200000000001
0
LINE
8
_MotorCAD40_
10
55.9452673751744
20
4.11490979064497
30
0
11
44.2980891574966
21
13.8189728348369
31
0
0
ARC
8
_MotorCAD41_
10
56.1373002850199
20
4.34539484772303
30
0
40
0.300000000000001
50
230.200000000001
51
320.200000000001
0
LINE
8
_MotorCAD42_
10
59.0613669575307
20
7.38629900515909
30
0
11
56.367785342098
21
4.15336193787754
31
0
0
ARC
8
_MotorCAD43_
10
58.8308819004526
20
7.57833191500457
30
0
40
0.3
50
320.200000000002
51
50.1999999999999
0
LINE
8
_MotorCAD44_
10
59.0229148102981
20
7.80881697208263
30
0
11
47.3757365926203
21
17.5128800162746
31
0
0
ARC
8
_MotorCAD45_
10
47.1837036827748
20
17.2823949591965
30
0
40
0.3
50
50.2000000000008
51
140.200000000001
0
LINE
8
_MotorCAD46_
10
40.8686019836355
20
21.2713510327811
30
0
11
40.7795330366968
21
20.2926480711776
31
0
0
ARC
8
_MotorCAD47_
10
41.9745943062514
20
20.1838888784135
30
0
40
1.2
50
174.799995372138
51
292.500005913697
0
LINE
8
_MotorCAD48_
10
45.2350776288836
20
20.2355546501882
30
0
11
42.4338145395177
21
19.0752334867977
31
0
0
ARC
8
_MotorCAD49_
10
44.8306126549376
20
21.2120195983361
30
0
40
1.05691802430964
50
292.49999745781
51
354.800000000001
0
LINE
8
_MotorCAD50_
10
47.3131886500354
20
36.8293690602842
30
0
11
47.2571707417619
21
36.2138358737535
31
0
0
ARC
8
_MotorCAD51_
10
46.3631330958424
20
36.9158308889134
30
0
40
0.953981762856521
50
354.800000000002
51
38.5279411865992
0
ARC
8
_MotorCAD52_
10
0
20
0
30
0
40
60.2188
50
38.5279411865998
51
41.2330585589715
0
ARC
8
_MotorCAD53_
10
44.8715059812497
20
39.3277888167472
30
0
40
0.552000000000002
50
41.233058558973
51
134.999999999997
0
LINE
8
_MotorCAD54_
10
44.4811830380348
20
39.7181117599622
30
0
11
43.4247756259965
21
38.6617043479239
31
0
0
ARC
8
_MotorCAD55_
10
44.2733031118095
20
37.8131755588897
30
0
40
1.2
50
134.999956000824
51
147.117011179319
0
LINE
8
_MotorCAD56_
10
43.265565795876
20
38.464685729244
30
0
11
42.3784100623077
21
37.0924562885281
31
0
0
ARC
8
_MotorCAD57_
10
42.8896589350074
20
36.7619304975747
30
0
40
0.608787900932653
50
147.117063469648
51
174.800008547255
0
LINE
8
_MotorCAD58_
10
42.2833765541714
20
36.8171064253856
30
0
11
42.2697816734932
21
36.6677238353839
31
0
0
LINE
8
_MotorCAD59_
10
42.2697816734932
20
36.6677238353839
30
0
11
40.8686019836355
21
21.2713510327811
31
0
0
LINE
8
_MotorCAD60_
10
55.8172454352774
20
3.96125308592627
30
0
11
43.9395821605216
21
13.8573490399637
31
0
0
LINE
8
_MotorCAD61_
10
55.9324879099758
20
3.86523667586188
30
0
11
55.8172454352774
21
3.96125308592627
31
0
0
ARC
8
_MotorCAD62_
10
56.3221790200655
20
4.33295833137829
30
0
40
0.60878790093265
50
230.199991452746
51
257.882936530353
0
LINE
8
_MotorCAD63_
10
57.7920150814945
20
3.39473485077877
30
0
11
56.1943885034458
21
3.73773375847824
31
0
0
ARC
8
_MotorCAD64_
10
58.0439057117762
20
4.56799999999965
30
0
40
1.2
50
257.882988820685
51
-90
0
LINE
8
_MotorCAD65_
10
59.5378923227889
20
3.368
30
0
11
58.0439066332929
21
3.368
31
0
0
ARC
8
_MotorCAD66_
10
59.5378923227889
20
3.92
30
0
40
0.552
50
-90
51
3.76694144103848
0
ARC
8
_MotorCAD67_
10
0
20
0
30
0
40
60.2188
50
3.76694144102864
51
6.47205881340018
0
ARC
8
_MotorCAD68_
10
58.8871201638111
20
6.68025145443811
30
0
40
0.95398176285652
50
6.47205881339907
51
50.1999999999986
0
LINE
8
_MotorCAD69_
10
59.4977731433474
20
7.41317992464946
30
0
11
59.0229148102981
21
7.80881697208263
31
0
0
ARC
8
_MotorCAD70_
10
46.6991931136992
20
16.7008673124084
30
0
40
1.05691802430965
50
50.1999999999999
51
112.50000254219
0
LINE
8
_MotorCAD71_
10
46.2947280531025
20
17.6773322246644
30
0
11
43.4934649637366
21
16.5170110612739
31
0
0
ARC
8
_MotorCAD72_
10
43.9526849681465
20
15.4083555748627
30
0
40
1.2
50
112.499994086303
51
230.200004627862
0
LINE
8
_MotorCAD73_
10
43.9395821605216
20
13.8573490399637
30
0
11
43.184553403231
21
14.4864152845074
31
0
0
ARC
8
_MotorCAD74_
10
32.3357835922756
20
13.3939202429132
30
0
40
6
50
202.500001138365
51
22.4999988616351
0
ARC
8
_MotorCAD75_
10
32.3357836835145
20
13.3939200226431
30
0
40
6
50
22.5000011383649
51
202.499998861635
0
LINE
8
_MotorCAD76_
10
27.5001
20
0
30
0
11
15.00005
21
0
31
0
0
LINE
8
_MotorCAD77_
10
19.4455071933082
20
19.4455071933082
30
0
11
10.6066370731373
21
10.6066370731373
31
0
0
ARC
8
_MotorCAD78_
10
0
20
0
30
0
40
15.00005
50
0
51
45
0
ENDSEC
0
EOF
